<?xml version="1.0" standalone="no"?><!DOCTYPE svg PUBLIC "-//W3C//DTD SVG 1.1//EN" "http://www.w3.org/Graphics/SVG/1.1/DTD/svg11.dtd"><svg t="1703849952600" class="icon" viewBox="0 0 1024 1024" version="1.1" xmlns="http://www.w3.org/2000/svg" p-id="7710" xmlns:xlink="http://www.w3.org/1999/xlink" width="200" height="200"><path d="M106.75 229.408l85.324 339.89c91.51-22.528 186.3-131.814 163.774-223.324-22.494-91.51-157.588-139.094-249.098-116.566zM444.266 806.526c2.062-11.53-5.842-20.996-17.59-20.996h-170.618c-11.746 0-23.026 9.466-25.088 20.996l-35.148 196.362c-2.062 11.56 5.844 20.996 17.558 20.996h170.648c11.716 0 23.026-9.436 25.088-20.996l35.15-196.362zM494.41 806.526c-2.062-11.53 5.844-20.996 17.59-20.996h170.618c11.748 0 23.028 9.466 25.09 20.996l35.148 196.362c2.06 11.56-5.844 20.996-17.59 20.996h-170.618c-11.716 0-23.028-9.436-25.09-20.996l-35.148-196.362zM911.036 678.586c-3.124 0-6.282-0.124-9.438-0.312-35.146-2.218-68.11-16.278-90.382-38.552-8.312-8.312-8.312-21.84 0-30.15a21.326 21.326 0 0 1 30.18 0c31.68 31.68 94.946 35.398 123.098 7.28 10.778-10.808 16.714-25.12 16.714-40.366 0-15.278-5.938-29.62-16.714-40.396-16.152-16.152-42.398-16.152-58.55 0-11.652 11.652-12.09 27.46-1.062 38.49 1.968 1.968 5.876 2.75 10.154 2 7.342-1.25 13.81-6.404 17.308-13.78 5.092-10.622 17.808-15.122 28.462-10.058 10.622 5.06 15.122 17.808 10.058 28.43-9.496 19.84-27.648 33.836-48.614 37.46-17.996 3.062-35.742-2.094-47.52-13.872-13.558-13.592-20.808-31.276-20.434-49.864 0.406-18.122 8.032-35.524 21.464-48.958 32.774-32.774 86.136-32.774 118.91 0 18.84 18.84 29.21 43.896 29.21 70.546 0 26.62-10.372 51.676-29.21 70.516-20.306 20.306-50.392 31.586-83.634 31.586z" fill="#D770AD" p-id="7711"></path><path d="M458.668 277.396c-161.12 0-309.678 88.23-366.634 213.264H21.426C9.646 490.66 0.118 500.22 0.118 512v255.942c0 11.778 9.53 21.338 21.308 21.338h94.042c66.39 101.976 201.11 170.618 343.202 170.618 212.046 0 394.566-152.778 394.566-341.266-0.002-188.458-182.522-341.236-394.568-341.236z" fill="#EC87C0" p-id="7712"></path><path d="M256.058 533.338c0 11.778-9.56 21.308-21.338 21.308-11.78 0-21.34-9.532-21.34-21.308 0-11.78 9.56-21.338 21.34-21.338 11.778 0 21.338 9.558 21.338 21.338zM560.864 342.29c-1.81-0.532-40.332-12.03-113.348-12.03-71.672 0-109.256 11.092-112.38 12.03-8.748 2.686-15.09 10.808-15.09 20.4 0 11.78 9.53 21.34 21.306 21.34a21.04 21.04 0 0 0 6.466-1c0.876-0.25 34.492-10.124 99.698-10.124 63.86 0 98.29 9.436 100.758 10.154 2 0.624 4.156 0.968 6.376 0.968 11.778 0 21.338-9.56 21.338-21.34-0.002-9.59-6.374-17.714-15.124-20.398z" fill="#434A54" p-id="7713"></path><path d="M575.986 128.088c0 70.67-57.298 127.97-127.97 127.97s-127.97-57.3-127.97-127.97c0-70.672 57.298-127.97 127.97-127.97s127.97 57.298 127.97 127.97z" fill="#FFCE54" p-id="7714"></path><path d="M448.016 86.424c-11.78 0-21.34 9.56-21.34 21.324v42.678c0 11.78 9.56 21.306 21.34 21.306a21.292 21.292 0 0 0 21.306-21.306V107.748c0-11.764-9.53-21.324-21.306-21.324z" fill="#E8AA3D" p-id="7715"></path></svg>